<?xml version="1.0" encoding="utf-8"?>
<!-- Generator: Adobe Illustrator 22.0.1, SVG Export Plug-In . SVG Version: 6.00 Build 0)  -->
<!DOCTYPE svg PUBLIC "-//W3C//DTD SVG 1.1//EN" "http://www.w3.org/Graphics/SVG/1.1/DTD/svg11.dtd">
<svg version="1.1" id="Layer_1" xmlns="http://www.w3.org/2000/svg" xmlns:xlink="http://www.w3.org/1999/xlink" x="0px" y="0px"
	 viewBox="0 0 1000 1000" style="enable-background:new 0 0 1000 1000;" xml:space="preserve">
<style type="text/css">
	.st0{fill:#007336;}
	.st1{fill:#FFFFFF;}
</style>
<g>
	<g>
		<rect class="st0" width="1000" height="1000"/>
	</g>
	<g>
		<path class="st1" d="M153.5,382.4c-2.9,2.4-7.4,7.1-7.4,16.1v143.9h34.1v31.9h-34.1v325.5h-31.6V574.3h-34v-31.9h34V399.4
			c0-14.5,4.7-27.5,13-37.7c7.6-9.4,22.1-15.1,40-14.1c15.8,0.9,23,5.4,23,5.4v30.5C190.5,383.4,162.2,375.3,153.5,382.4z"/>
		<path class="st1" d="M221.3,663.6v-18.3h-30.6v254.6h30.6v-152c0-17.4,4.1-42.6,16.3-56.7c21-24.3,50.8-18.8,50.8-18.8v-32.1
			C288.4,640.3,247.2,632.3,221.3,663.6z"/>
		<path class="st1" d="M326.6,779.5h129.5v-10c0-42.5-4.1-73.5-15.4-94.1c-12.5-22.8-34-35.8-62.4-35.8c-28.4,0-50,13.1-64.5,35.4
			c-17,26.1-18.3,55.7-19.6,93.5c-1,29.6,1.8,53.6,7,73.1c21.5,81.1,138.3,76.8,152.9-5.8c1.5-8.4,2.4-17.7,2.5-27.6h-32.1
			c0,0,4,61.9-50.9,60.4C320,867.2,326.6,779.5,326.6,779.5z M399.6,678.5c10.9,7.5,18,19.5,20.4,32.5c0.7,3.7,1.2,7.5,1.8,11.5
			c0.9,7.2,1.6,16.6,1.8,25.7h-96.9c0.3-6.1,1-13.8,2-20.4c1.4-9.7,4.1-19.3,7.7-27.9c3.6-8.5,15.4-26.9,37.2-28.5
			C384.1,670.4,392.9,673.9,399.6,678.5z"/>
		<path class="st1" d="M555.8,671.2c-25.6-2.3-42,23.9-37.4,40.9c3.6,13.7,12.5,25.3,25.3,31.2c0,0,0,0,0,0l40.3,15.3
			c25.5,12.1,39.5,26.7,44.3,48.9c2.8,13,1.6,29.3-2.9,41.8c-5.1,14.1-16.7,31.8-37.7,42.3c-19.5,9.7-42.4,10.6-62.8,2.9
			c-23.3-8.9-52.1-31-48.3-86.3h32.4c-4.2,57.8,38.5,59.8,38.5,59.8c46.8,2.6,49.3-40.3,49.3-40.3s4.8-26.1-29.5-40.5
			c0,0-35.2-14.1-46-20.4c-36-21.1-46.9-64-23.7-98.7c7.8-11.5,19.6-19.8,30-23.8c17-6.6,33.8-6.1,50.5-0.7
			c52.2,16.8,44.7,86.3,44.7,86.3l-31.5,0C591.5,730,597.6,675,555.8,671.2z"/>
		<path class="st1" d="M727.4,640.2c-14.2-0.3-23.7-0.4-46.4,12.6V347.7h-31.8v552.1h32V725.6c-1.1-32.8,13.7-45.7,26.3-50.7
			c11.2-4.5,24.1-3.8,34.8,1.8c9.7,5.1,16,13.3,19.2,21.6c3,7.7,4.4,16,4.4,24.3v177.2h32V720.3c0-15.9-3.9-32.3-12.1-46
			C785.8,674.4,766.1,641.2,727.4,640.2z"/>
		<rect x="823.8" y="639.8" class="st1" width="31.9" height="260.1"/>
		<path class="st1" d="M839.7,528.7c-12.3,0-22.4,10-22.4,22.4c0,12.3,10,22.4,22.4,22.4c12.3,0,22.4-10,22.4-22.4
			C862.1,538.8,852,528.7,839.7,528.7z"/>
		<rect x="881.2" y="639.8" class="st1" width="31.9" height="260.1"/>
		<path class="st1" d="M897.2,528.7c-12.3,0-22.4,10-22.4,22.4c0,12.3,10,22.4,22.4,22.4c12.3,0,22.4-10,22.4-22.4
			C919.5,538.8,909.5,528.7,897.2,528.7z"/>
	</g>
</g>
</svg>
